PathFileType	4	(X/Y/Z)	Patient5_TMGait_0pt45_1_left_12.trc.trc
DataRate	CameraRate	NumFrames	NumMarkers	Units	OrigDataRate	OrigDataStartFrame	OrigNumFrames
62.500000000000	62.500000000000	5	32	mm	62.500000000000	124	       141
Frame#	Time	R.ASIS			L.ASIS			Chest			R.Shoulder			Neck			L.Shoulder			L.Elbow			L.Wrist			R.Elbow			R.Wrist			L.Thigh.Superior			L.Thigh.Lateral			L.Thigh.Inferior			L.Patella			L.Shank.Superior			L.Shank.Lateral			L.Shank.Inferior			L.Heel			L.Midfoot.Lateral			L.Midfoot.Superior			L.Toe			R.Thigh.Superior			R.Thigh.Lateral			R.Thigh.Inferior			R.Patella			R.Shank.Superior			R.Shank.Lateral			R.Shank.Inferior			R.Heel			R.Midfoot.Lateral			R.Midfoot.Superior			R.Toe			
		X1	Y1	Z1	X2	Y2	Z2	X3	Y3	Z3	X4	Y4	Z4	X5	Y5	Z5	X6	Y6	Z6	X7	Y7	Z7	X8	Y8	Z8	X9	Y9	Z9	X10	Y10	Z10	X11	Y11	Z11	X12	Y12	Z12	X13	Y13	Z13	X14	Y14	Z14	X15	Y15	Z15	X16	Y16	Z16	X17	Y17	Z17	X18	Y18	Z18	X19	Y19	Z19	X20	Y20	Z20	X21	Y21	Z21	X22	Y22	Z22	X23	Y23	Z23	X24	Y24	Z24	X25	Y25	Z25	X26	Y26	Z26	X27	Y27	Z27	X28	Y28	Z28	X29	Y29	Z29	X30	Y30	Z30	X31	Y31	Z31	X32	Y32	Z32	

124	20.578000000000	1018.909833638226	956.338819698894	593.223523080446	1019.985542193515	941.043310294514	351.564857358880	1128.482599871741	1406.653730938676	474.268429069110	1038.501151391724	1477.054631754458	640.654045454692	1007.166153110211	1536.780547155910	457.965975890485	1070.792372737224	1478.352585955307	277.115882523242	973.542024850282	1165.690812423565	149.722436079899	1061.797894315670	890.069212996548	179.130991308694	963.179283561005	1172.324371654838	809.642596992913	1164.392260741143	974.520745600959	740.397590040200	1082.259870637516	756.347541303056	328.099655199510	1038.915992573150	668.704657268570	284.891718379212	1130.099335767047	641.466862480194	349.892613079901	1178.079411533609	533.759865467383	350.738076316455	1160.032287070276	420.620650385382	367.851780930864	1109.488429674764	339.265671225684	293.549521417338	1165.238207198430	294.100114537457	374.610503813654	1099.515101531637	44.794314841903	372.395248417265	1186.522940651418	34.040806906825	306.661522891253	1272.435948086878	112.826422440867	344.457960307473	1382.969156751818	92.941477429638	341.147972144406	987.195841018476	721.100254463580	606.355586268651	882.149997113819	661.830340524404	655.827456225879	950.592919696426	593.847824073655	584.747419915661	931.399584421932	500.212639115563	611.677810554774	878.859583753253	413.697284892008	572.287438554144	798.000167522422	355.427342570955	650.338451043439	849.171362382675	277.886359795687	572.410573208247	709.616198507349	53.710712880586	535.277487428542	784.387429411446	24.923982636609	612.159083543620	890.946507556344	87.075583224787	592.994038288537	994.682839523285	44.719480832384	597.816597708459	
125	20.594000000000	1020.949236675731	956.252721270231	591.746650299031	1026.001788567102	940.112460934311	349.748375249595	1129.301693316295	1407.092282374921	471.026021120242	1036.716062702374	1477.314727960892	636.009355165472	1007.820551675438	1536.352736730807	452.856892375174	1073.261140279060	1477.773970699507	272.919889354585	979.441178273549	1164.132237284959	145.371681800521	1067.911896295276	888.821582598158	176.919438092023	963.246939546275	1171.657511807266	804.578279285559	1165.163469048427	974.115646119239	736.502040097525	1087.978148162281	753.599903569968	327.990584097915	1043.048001164563	665.853018797594	285.758456975364	1132.999003938338	637.582729706399	351.858606532326	1178.115711129480	530.304132375962	355.061144580373	1160.130077404032	417.081728580330	370.811511997395	1112.268257480619	336.058353841227	294.791724445528	1165.611197064032	290.768118593055	376.666440690785	1099.812769492733	44.805156748786	372.091140264625	1187.830065946056	31.518597846986	308.197443536302	1274.151234463751	108.489414955048	348.436867576316	1384.390055662642	86.492778100104	347.693323259629	989.128812676685	720.753301638166	604.335020989589	883.354926728052	661.977323984914	653.342794950264	952.132004200254	593.358750024875	583.361682054902	931.859774261015	499.404180087885	610.480471217189	878.104822335229	412.738749373067	571.009330382896	795.486023218252	356.232682642705	648.547380398261	845.857189953942	277.461628994314	571.539783592745	702.578135250481	54.213759098650	535.158758052478	777.319146488291	25.170496864981	612.000829206772	884.045833018038	87.180005766549	593.146500196156	987.558104286233	44.540318780028	597.880708575608	
126	20.610000000000	1023.067466295259	956.555914460699	589.756761287395	1032.005744930864	939.693777608305	347.755411568702	1130.132041604102	1408.097500314338	467.633262401036	1034.675097624570	1478.115057809510	631.219427140600	1008.513391490788	1536.450992961405	447.508039916485	1075.792621042908	1477.713137572112	268.560325958489	985.730318324724	1163.106390976709	140.730981664415	1074.460493497528	888.160758704508	174.622905567464	962.543512648381	1171.381435724928	798.897438260215	1165.798786600128	974.658268574557	732.458787182840	1094.340500415923	752.430538253611	328.274669510806	1048.610635355165	664.658106340356	286.265809878099	1136.992404523847	635.291562461714	353.638315878636	1179.333570327904	527.668351331888	358.581600425647	1160.356544516736	414.185276422071	372.867681581765	1114.577147999227	334.040353737480	294.947302817144	1164.617694276356	288.030855446003	377.820137185102	1095.970772751770	45.649891789636	371.407210482281	1184.765125784611	29.448157807115	309.098779549610	1272.340170730613	103.882935064872	351.512085653396	1382.069076884069	78.757606500065	353.078578234285	991.473782278867	720.777230257388	602.342533647454	885.121679735451	662.372209859253	650.885195651771	954.399217940894	593.171683721485	582.015934158410	933.143478615476	498.863800903884	609.399072189101	878.062936889886	411.892521529604	569.870115645106	793.627936705190	357.289800418104	646.819739382193	843.049513536763	277.232014653692	570.730658245336	695.701657653877	55.302818611228	535.056458985062	770.337256259728	25.707630665987	611.820889845756	877.386686455939	87.318766826881	593.363736150395	980.491491284263	44.302918364541	597.943411639949	
127	20.626000000000	1025.155851229767	957.329600521427	587.315483762865	1037.806487833280	939.852082138078	345.521113588834	1131.053319053839	1409.624494489014	464.136775393795	1032.629499151023	1479.491965504092	626.360975296279	1009.355284305160	1537.128622659369	442.014172705706	1078.490546209719	1478.160371647873	264.120262648385	992.271410041237	1162.659470229799	135.925341839770	1081.411631709574	888.153142068879	172.164535254472	960.973272496071	1171.583489261029	792.568897779239	1166.202035405440	976.232470928467	728.314448487804	1100.873297593299	752.694323995127	328.560137833366	1055.037840864156	664.968986696639	286.134539447533	1141.650256470085	634.478458735290	354.795567384228	1181.433585174567	525.929726500399	360.817507009405	1160.755613437848	412.061534913837	373.766155531752	1116.393215706145	333.069938303381	294.010376358016	1162.776019447185	285.998789536650	377.970522410188	1089.468519758603	46.821432406760	370.478108123839	1178.772596165699	27.822426278542	309.375593485206	1268.053964294544	99.562014191102	353.499434899508	1377.174700538522	70.937711876788	356.951358928646	994.103172845849	721.289645308204	600.438505036005	887.337898147981	663.109936509058	648.527490046155	957.317841481234	593.408002871857	580.799946215983	935.241182802316	498.712475498369	608.557780910088	878.722428609596	411.268793726249	568.979082077766	792.429544870550	358.678253965502	645.264773259570	840.778468360173	277.304067234937	570.070170481083	689.056988162634	57.220463766275	534.992647246493	763.459375858598	26.673137564683	611.638111401786	871.040357705203	87.499735757501	593.667750725153	973.487681747005	44.007682907680	597.993275138915	
128	20.642000000000	1027.154005634545	958.638293241510	584.509488253628	1043.260219584905	940.577521803862	343.015313744089	1132.107895482373	1411.594526013677	460.597487139127	1030.777953241259	1481.426041457230	621.497993870263	1010.411514383472	1538.384998556313	436.470855121627	1081.438860370150	1479.074962026632	259.687314864054	998.936283006562	1162.794079861492	131.074676029929	1088.718692865408	888.812865838155	169.481240405185	958.537358188073	1172.297099103453	785.613758568895	1166.297540884902	978.804497522045	724.099788918581	1107.117851002173	753.963834105782	328.358082725890	1061.561487303247	666.344405853857	285.205306972538	1146.425494450801	634.766382612611	354.980572375742	1183.942229847714	524.971203395017	361.549513018562	1161.191373632357	410.671049277672	373.474791396603	1117.535088657919	332.874508312785	292.201185127820	1160.421711097397	284.657780435205	377.211862267878	1081.594524438950	47.952192606187	369.441278269425	1171.160837079859	26.628144374370	309.138950458475	1262.214426017896	95.961300820078	354.457148345216	1370.734180016544	64.028955344343	359.308965129057	996.913994468448	722.384328326147	598.677561103661	889.905127464035	664.264841529049	646.330347528000	960.817281400684	594.160868520067	579.810365027169	938.144969537829	499.041567482161	608.082449981607	880.058296670440	410.964410040991	568.432904217239	791.890009673759	360.467668977749	643.996281381425	839.067846586648	277.777766654072	569.647909108186	682.718165665334	60.185867287411	534.998661026680	756.708419438070	28.205010695728	611.476556797978	865.071236018646	87.741478925748	594.081086701422	966.553422976837	43.666519134231	598.018229895531	
